<svg width="15" height="190" viewBox="0 0 15 190" fill="none" xmlns="http://www.w3.org/2000/svg">
<path d="M9.22266 94V90.2266H0.75L0.199219 88.1172L9.52734 77.0781H12.0469V87.8125H14.4492V90.2266H12.0469V94H9.22266ZM3.70312 87.8125H9.22266V81.1562L3.70312 87.8125Z" fill="white"/>
<path d="M6.79688 189.293C5.70312 189.293 4.73047 189.121 3.87891 188.777C3.02734 188.426 2.21094 187.926 1.42969 187.277L3.03516 185.016C3.68359 185.562 4.30469 185.965 4.89844 186.223C5.5 186.473 6.15625 186.598 6.86719 186.598C8.08594 186.598 9.05469 186.113 9.77344 185.145C10.5 184.176 10.8867 182.902 10.9336 181.324C9.94922 182.504 8.63672 183.094 6.99609 183.094C5.19922 183.094 3.75781 182.609 2.67188 181.641C1.58594 180.664 1.04297 179.355 1.04297 177.715C1.04297 176.051 1.625 174.668 2.78906 173.566C3.96094 172.465 5.46484 171.914 7.30078 171.914C8.33203 171.914 9.21484 172.059 9.94922 172.348C10.6914 172.637 11.3633 173.082 11.9648 173.684C12.6289 174.348 13.1328 175.191 13.4766 176.215C13.8281 177.23 14.0039 178.539 14.0039 180.141C14.0039 181.938 13.7188 183.527 13.1484 184.91C12.5859 186.285 11.7539 187.359 10.6523 188.133C9.55859 188.906 8.27344 189.293 6.79688 189.293ZM4.93359 179.789C5.56641 180.344 6.39844 180.621 7.42969 180.621C8.46094 180.621 9.28516 180.328 9.90234 179.742C10.5195 179.148 10.8281 178.418 10.8281 177.551C10.8281 176.66 10.5039 175.922 9.85547 175.336C9.21484 174.75 8.37109 174.457 7.32422 174.457C6.30859 174.457 5.5 174.758 4.89844 175.359C4.29688 175.953 3.99609 176.707 3.99609 177.621C3.99609 178.504 4.30859 179.227 4.93359 179.789Z" fill="white"/>
<path d="M7.5 169.234C5.64062 169.234 4.10547 168.789 2.89453 167.898C1.69141 167.008 1.08984 165.84 1.08984 164.395C1.08984 162.504 2.09766 161.137 4.11328 160.293C2.48047 159.441 1.66406 158.176 1.66406 156.496C1.66406 155.207 2.21875 154.129 3.32812 153.262C4.4375 152.395 5.82812 151.961 7.5 151.961C9.17969 151.961 10.5703 152.395 11.6719 153.262C12.7812 154.129 13.3359 155.223 13.3359 156.543C13.3359 158.191 12.5195 159.441 10.8867 160.293C11.8633 160.746 12.6094 161.297 13.125 161.945C13.6484 162.594 13.9102 163.402 13.9102 164.371C13.9102 165.348 13.6289 166.211 13.0664 166.961C12.5117 167.703 11.75 168.27 10.7812 168.66C9.82031 169.043 8.72656 169.234 7.5 169.234ZM5.34375 158.605C5.91406 159.074 6.63281 159.309 7.5 159.309C8.36719 159.309 9.08203 159.074 9.64453 158.605C10.2148 158.137 10.5 157.531 10.5 156.789C10.5 156.125 10.2188 155.566 9.65625 155.113C9.10156 154.66 8.38281 154.434 7.5 154.434C6.60938 154.434 5.88672 154.664 5.33203 155.125C4.77734 155.578 4.5 156.141 4.5 156.812C4.5 157.539 4.78125 158.137 5.34375 158.605ZM7.5 166.773C8.57812 166.773 9.43359 166.531 10.0664 166.047C10.707 165.555 11.0273 164.938 11.0273 164.195C11.0273 163.438 10.6914 162.824 10.0195 162.355C9.35547 161.887 8.51562 161.652 7.5 161.652C6.48438 161.652 5.64062 161.891 4.96875 162.367C4.30469 162.844 3.97266 163.469 3.97266 164.242C3.97266 164.953 4.29297 165.555 4.93359 166.047C5.57422 166.531 6.42969 166.773 7.5 166.773Z" fill="white"/>
<path d="M2.73047 151L10.2656 136.797H1.81641V134.195H13.6289V136.434L6.04688 151H2.73047Z" fill="white"/>
<path d="M7.71094 132.293C5.78125 132.293 4.23047 131.707 3.05859 130.535C2.36328 129.84 1.84375 128.996 1.5 128.004C1.16406 127.012 0.996094 125.695 0.996094 124.055C0.996094 123.023 1.08984 122.051 1.27734 121.137C1.47266 120.223 1.76562 119.387 2.15625 118.629C2.55469 117.863 3.03516 117.207 3.59766 116.66C4.16016 116.105 4.83203 115.676 5.61328 115.371C6.40234 115.066 7.26172 114.914 8.19141 114.914C9.23047 114.914 10.1484 115.07 10.9453 115.383C11.75 115.695 12.543 116.164 13.3242 116.789L11.7422 119.062C11.1016 118.562 10.5039 118.195 9.94922 117.961C9.40234 117.719 8.78516 117.598 8.09766 117.598C6.88672 117.598 5.92969 118.09 5.22656 119.074C4.52344 120.051 4.13672 121.336 4.06641 122.93C4.59766 122.406 5.17188 121.996 5.78906 121.699C6.41406 121.395 7.17578 121.242 8.07422 121.242C9.17578 121.242 10.1641 121.445 11.0391 121.852C11.9219 122.258 12.6289 122.871 13.1602 123.691C13.6914 124.512 13.957 125.473 13.957 126.574C13.957 127.668 13.6836 128.652 13.1367 129.527C12.5898 130.402 11.8398 131.082 10.8867 131.566C9.93359 132.051 8.875 132.293 7.71094 132.293ZM7.64062 129.738C8.66406 129.738 9.48047 129.449 10.0898 128.871C10.6992 128.293 11.0039 127.551 11.0039 126.645C11.0039 125.793 10.6875 125.094 10.0547 124.547C9.42969 123.992 8.60156 123.715 7.57031 123.715C6.55469 123.715 5.73047 124.004 5.09766 124.582C4.47266 125.152 4.16016 125.863 4.16016 126.715C4.16016 127.582 4.48047 128.305 5.12109 128.883C5.76172 129.453 6.60156 129.738 7.64062 129.738Z" fill="white"/>
<path d="M7.33594 113.293C4.99219 113.293 2.93359 112.434 1.16016 110.715L2.98828 108.582C4.44922 109.926 5.89062 110.598 7.3125 110.598C8.32031 110.598 9.125 110.332 9.72656 109.801C10.3359 109.262 10.6406 108.543 10.6406 107.645C10.6406 106.801 10.3164 106.129 9.66797 105.629C9.02734 105.121 8.19141 104.867 7.16016 104.867C6.13672 104.867 5.10547 105.113 4.06641 105.605L2.29688 104.434L2.76562 96.1953H12.8086V98.8203H5.32031L5.05078 102.758C5.92578 102.438 6.8125 102.277 7.71094 102.277C8.82812 102.277 9.81641 102.469 10.6758 102.852C11.543 103.227 12.2383 103.82 12.7617 104.633C13.2852 105.445 13.5469 106.434 13.5469 107.598C13.5469 109.309 12.9766 110.688 11.8359 111.734C10.6953 112.773 9.19531 113.293 7.33594 113.293Z" fill="white"/>
<path d="M7.54688 75.293C4.875 75.293 2.73047 74.3086 1.11328 72.3398L3.17578 70.418C3.79297 71.1523 4.45703 71.7031 5.16797 72.0703C5.87891 72.4375 6.6875 72.6211 7.59375 72.6211C8.4375 72.6211 9.13281 72.3867 9.67969 71.918C10.2266 71.4414 10.5 70.8125 10.5 70.0312C10.5 69.2109 10.1523 68.5742 9.45703 68.1211C8.76953 67.668 7.82812 67.4414 6.63281 67.4414H5.26172L4.78125 65.5898L9.31641 60.7734H2.05078V58.1953H13.1602V60.4102L8.48438 65.2031C9.17969 65.3047 9.8125 65.4688 10.3828 65.6953C10.9609 65.9219 11.4805 66.2227 11.9414 66.5977C12.4102 66.9727 12.7734 67.4492 13.0312 68.0273C13.2969 68.5977 13.4297 69.25 13.4297 69.9844C13.4297 71.5391 12.8828 72.8125 11.7891 73.8047C10.6953 74.7969 9.28125 75.293 7.54688 75.293Z" fill="white"/>
<path d="M1.3125 56V53.668L7.10156 48.7578C8.28125 47.7656 9.09766 46.9453 9.55078 46.2969C10.0117 45.6484 10.2422 44.9531 10.2422 44.2109C10.2422 43.4062 9.98828 42.7695 9.48047 42.3008C8.97266 41.832 8.32422 41.5977 7.53516 41.5977C6.80078 41.5977 6.14062 41.7969 5.55469 42.1953C4.96875 42.5938 4.33203 43.2344 3.64453 44.1172L1.55859 42.4883C2.12891 41.6836 2.67969 41.0391 3.21094 40.5547C3.75 40.0625 4.39453 39.6758 5.14453 39.3945C5.90234 39.1055 6.76953 38.9609 7.74609 38.9609C9.39453 38.9609 10.7305 39.4258 11.7539 40.3555C12.7773 41.2852 13.2891 42.5078 13.2891 44.0234C13.2891 44.5469 13.2266 45.0352 13.1016 45.4883C12.9844 45.9414 12.8242 46.3594 12.6211 46.7422C12.418 47.1172 12.1172 47.5234 11.7188 47.9609C11.3281 48.3906 10.9297 48.7891 10.5234 49.1562C10.125 49.5234 9.59375 49.9805 8.92969 50.5273L5.47266 53.4102H13.4648V56H1.3125Z" fill="white"/>
<path d="M7.01953 37V23.0781L3.98438 23.9219L3.36328 21.5195L7.875 20.0781H9.9375V37H7.01953Z" fill="white"/>
<path d="M7.47656 18.293C6.03906 18.293 4.76172 17.9062 3.64453 17.1328C2.52734 16.3594 1.67188 15.3164 1.07812 14.0039C0.484375 12.6836 0.1875 11.2148 0.1875 9.59766C0.1875 7.99609 0.488281 6.53906 1.08984 5.22656C1.69141 3.91406 2.55469 2.86719 3.67969 2.08594C4.80469 1.30469 6.08594 0.914062 7.52344 0.914062C8.95312 0.914062 10.2266 1.30078 11.3438 2.07422C12.4688 2.84766 13.3281 3.89062 13.9219 5.20312C14.5234 6.51562 14.8242 7.98047 14.8242 9.59766C14.8242 10.793 14.6445 11.9219 14.2852 12.9844C13.9336 14.0469 13.4414 14.9688 12.8086 15.75C12.1836 16.5312 11.4062 17.1523 10.4766 17.6133C9.55469 18.0664 8.55469 18.293 7.47656 18.293ZM5.26172 14.8125C5.91797 15.3516 6.67188 15.6211 7.52344 15.6211C8.375 15.6211 9.125 15.3516 9.77344 14.8125C10.4297 14.2734 10.9258 13.5508 11.2617 12.6445C11.6055 11.7383 11.7773 10.7227 11.7773 9.59766C11.7773 7.90234 11.375 6.47656 10.5703 5.32031C9.77344 4.15625 8.74219 3.57422 7.47656 3.57422C6.63281 3.57422 5.88672 3.84375 5.23828 4.38281C4.58984 4.91406 4.09375 5.63281 3.75 6.53906C3.40625 7.44531 3.23438 8.46484 3.23438 9.59766C3.23438 10.707 3.40625 11.7188 3.75 12.6328C4.10156 13.5391 4.60547 14.2656 5.26172 14.8125Z" fill="white"/>
</svg>
